<svg width="32" height="32" viewBox="0 0 32 32" fill="none" xmlns="http://www.w3.org/2000/svg">
  <style>
    .bg { fill: #0a0a0a; }
    .icon { fill: #ffffff; }
    .text { fill: #0a0a0a; }
    
    @media (prefers-color-scheme: light) {
      .bg { fill: #ffffff; }
      .icon { fill: #0a0a0a; }
      .text { fill: #ffffff; }
    }
  </style>
  <rect width="32" height="32" rx="8" class="bg"/>
  <path d="M8 12C8 9.79086 9.79086 8 12 8H20C22.2091 8 24 9.79086 24 12V20C24 22.2091 22.2091 24 20 24H12C9.79086 24 8 22.2091 8 20V12Z" class="icon"/>
  <path d="M12 14C12 13.4477 12.4477 13 13 13H19C19.5523 13 20 13.4477 20 14C20 14.5523 19.5523 15 19 15H13C12.4477 15 12 14.5523 12 14Z" class="text"/>
  <path d="M12 17C12 16.4477 12.4477 16 13 16H16C16.5523 16 17 16.4477 17 17C17 17.5523 16.5523 18 16 18H13C12.4477 18 12 17.5523 12 17Z" class="text"/>
</svg>