<?xml version="1.0" encoding="UTF-8"?>
<svg xmlns="http://www.w3.org/2000/svg" xmlns:xlink="http://www.w3.org/1999/xlink" width="200px" height="200px" viewBox="0 0 200 200" version="1.1">
<g id="surface1">
<path style=" stroke:none;fill-rule:nonzero;fill:rgb(98.039216%,87.843138%,81.176472%);fill-opacity:1;" d="M 70.773438 65.601562 C 61.96875 57.71875 53.234375 47.988281 44.976562 39.433594 C 42.230469 36.589844 35.394531 29.882812 33.316406 27.152344 C 47.101562 11.445312 73.699219 1.953125 94.171875 0.40625 C 148.574219 -3.703125 195.066406 38.152344 197.964844 92.425781 C 199.617188 123.328125 191.324219 144.847656 170.460938 167.890625 L 170.019531 168.371094 C 158.921875 158.277344 149.066406 146.425781 138.5 135.757812 C 136.777344 134.019531 134.621094 131.953125 133.046875 130.128906 C 134.390625 128.886719 135.675781 127.578125 136.894531 126.207031 C 144.652344 117.632812 149.226562 105.621094 148.554688 94.035156 C 147.828125 82.058594 142.394531 70.859375 133.4375 62.878906 C 115.710938 47.332031 86.496094 47.683594 70.773438 65.601562 Z M 70.773438 65.601562 "/>
<path style=" stroke:none;fill-rule:nonzero;fill:rgb(98.039216%,87.843138%,81.176472%);fill-opacity:1;" d="M 30.515625 29.46875 C 32.753906 31.445312 34.914062 33.546875 36.957031 35.726562 C 47.265625 46.722656 58.277344 57.289062 68.394531 68.445312 C 60.234375 75.207031 54.832031 85.871094 53.855469 96.390625 C 52.699219 108.710938 56.574219 120.96875 64.59375 130.390625 C 71.96875 139.3125 82.652344 144.859375 94.195312 145.765625 C 107.929688 146.914062 120.261719 142.367188 130.253906 132.953125 C 141.390625 143.019531 157.257812 159.859375 167.453125 171.132812 C 162.3125 175.8125 156.3125 180.605469 150.433594 184.277344 C 85.4375 224.863281 1.410156 177.378906 2.363281 100.742188 C 2.6875 74.785156 11.960938 48.195312 30.515625 29.46875 Z M 30.515625 29.46875 "/>
<path style=" stroke:none;fill-rule:nonzero;fill:rgb(92.54902%,51.372552%,13.333334%);fill-opacity:1;" d="M 70.773438 65.601562 C 86.496094 47.683594 115.710938 47.332031 133.4375 62.878906 C 142.394531 70.859375 147.828125 82.058594 148.554688 94.035156 C 149.226562 105.621094 144.652344 117.632812 136.894531 126.207031 C 135.675781 127.578125 134.390625 128.886719 133.046875 130.128906 C 114.746094 108.683594 90.136719 87.136719 70.773438 65.601562 Z M 70.773438 65.601562 "/>
<path style=" stroke:none;fill-rule:nonzero;fill:rgb(92.54902%,51.372552%,13.333334%);fill-opacity:1;" d="M 68.394531 68.445312 C 81.707031 83.464844 95.523438 97.476562 109.753906 111.613281 C 116.730469 118.542969 123.273438 125.996094 130.253906 132.953125 C 120.261719 142.367188 107.929688 146.914062 94.195312 145.765625 C 82.652344 144.859375 71.96875 139.3125 64.59375 130.390625 C 56.574219 120.96875 52.699219 108.710938 53.855469 96.390625 C 54.832031 85.871094 60.234375 75.207031 68.394531 68.445312 Z M 68.394531 68.445312 "/>
</g>
</svg>
