<svg width="800" height="400" viewBox="0 0 800 400" xmlns="http://www.w3.org/2000/svg"><mask id="satori_om-id"><rect x="0" y="0" width="800" height="400" fill="#fff"/></mask><rect x="0" y="0" width="800" height="400" fill="#ffffff"/><mask id="satori_om-id-0"><rect x="380" y="126" width="41" height="20" fill="#fff"/></mask><g  ><path fill="#000000" d="M384.9 127.8L387.5 127.8L382.9 145.2L380.2 145.2L384.9 127.8ZM395.5 145.2L392.9 145.2L388.2 127.8L390.8 127.8L395.5 145.2ZM395.8 143L405.3 143L405.3 145.3L395.8 145.3L395.8 143ZM410.2 127.8L412.8 127.8L408.2 145.2L405.5 145.2L410.2 127.8ZM420.8 145.2L418.2 145.2L413.5 127.8L416.1 127.8L420.8 145.2Z "/></g><mask id="satori_om-id-1"><rect x="372" y="144" width="57" height="24" fill="#fff"/></mask><g  ><path fill="#000000" d="M373.9 157.2L373.9 157.2Q373.9 154.5 374.6 152.3Q375.3 150.1 376.7 148.2L376.7 148.2L379.6 148.2Q379.1 148.9 378.6 149.9Q378.1 150.9 377.8 152.1Q377.4 153.3 377.2 154.6Q377.0 155.9 377.0 157.2L377.0 157.2Q377.0 158.9 377.4 160.6Q377.7 162.3 378.3 163.8Q378.9 165.2 379.6 166.2L379.6 166.2L376.7 166.2Q375.3 164.3 374.6 162.0Q373.9 159.8 373.9 157.2Z M391.0 163.2L391.0 163.2Q389.3 163.2 388.1 162.5Q386.9 161.8 386.2 160.5Q385.6 159.3 385.6 157.6L385.6 157.6Q385.6 155.9 386.2 154.6Q386.9 153.4 388.1 152.7Q389.3 151.9 391.0 151.9L391.0 151.9Q392.6 151.9 393.8 152.7Q395.0 153.4 395.7 154.6Q396.3 155.9 396.3 157.6L396.3 157.6Q396.3 159.3 395.7 160.5Q395.0 161.8 393.8 162.5Q392.6 163.2 391.0 163.2ZM391.0 160.9L391.0 160.9Q391.7 160.9 392.2 160.4Q392.7 160.0 393.0 159.3Q393.3 158.5 393.3 157.6L393.3 157.6Q393.3 156.6 393.0 155.9Q392.7 155.1 392.2 154.7Q391.7 154.3 391.0 154.3L391.0 154.3Q390.2 154.3 389.7 154.7Q389.2 155.1 388.9 155.9Q388.7 156.6 388.7 157.6L388.7 157.6Q388.7 158.5 388.9 159.3Q389.2 160.0 389.7 160.4Q390.2 160.9 391.0 160.9ZM400.1 163.2L400.1 163.2Q399.4 163.2 398.9 162.7Q398.4 162.2 398.4 161.5L398.4 161.5Q398.4 160.8 398.9 160.3Q399.4 159.8 400.1 159.8L400.1 159.8Q400.7 159.8 401.3 160.3Q401.8 160.8 401.8 161.5L401.8 161.5Q401.8 161.9 401.5 162.3Q401.3 162.7 400.9 163.0Q400.5 163.2 400.1 163.2ZM409.2 163.2L409.2 163.2Q407.5 163.2 406.3 162.5Q405.1 161.8 404.5 160.5Q403.8 159.3 403.8 157.6L403.8 157.6Q403.8 155.9 404.5 154.6Q405.1 153.4 406.3 152.7Q407.5 151.9 409.2 151.9L409.2 151.9Q410.8 151.9 412.0 152.7Q413.2 153.4 413.9 154.6Q414.5 155.9 414.5 157.6L414.5 157.6Q414.5 159.3 413.9 160.5Q413.2 161.8 412.0 162.5Q410.8 163.2 409.2 163.2ZM409.2 160.9L409.2 160.9Q409.9 160.9 410.5 160.4Q411.0 160.0 411.2 159.3Q411.5 158.5 411.5 157.6L411.5 157.6Q411.5 156.6 411.2 155.9Q411.0 155.1 410.5 154.7Q409.9 154.3 409.2 154.3L409.2 154.3Q408.4 154.3 407.9 154.7Q407.4 155.1 407.1 155.9Q406.9 156.6 406.9 157.6L406.9 157.6Q406.9 158.5 407.1 159.3Q407.4 160.0 407.9 160.4Q408.4 160.9 409.2 160.9Z M426.3 157.2L426.3 157.2Q426.3 159.8 425.6 162.0Q424.8 164.3 423.4 166.2L423.4 166.2L420.5 166.2Q421.1 165.5 421.5 164.4Q422.0 163.4 422.4 162.2Q422.7 161.0 422.9 159.7Q423.1 158.4 423.1 157.2L423.1 157.2Q423.1 155.5 422.8 153.8Q422.4 152.1 421.8 150.6Q421.2 149.1 420.5 148.2L420.5 148.2L423.4 148.2Q424.8 150.1 425.6 152.3Q426.3 154.5 426.3 157.2Z "/></g><mask id="satori_om-id-2"><rect x="198" y="198" width="404" height="77" fill="#fff"/></mask><g  ><path fill="#000000" d="M211.9 260L202.0 260L202.0 213.5L220.4 213.5Q225.7 213.5 229.4 215.3Q233.2 217.2 235.1 220.6Q237.1 224.0 237.1 228.7L237.1 228.7Q237.1 233.3 235.1 236.6Q233.1 240.0 229.3 241.7Q225.5 243.5 220.2 243.5L220.2 243.5L207.9 243.5L207.9 235.6L218.6 235.6Q221.4 235.6 223.3 234.8Q225.1 234.0 226.0 232.5Q227.0 231.0 227.0 228.7L227.0 228.7Q227.0 226.3 226.0 224.8Q225.1 223.2 223.2 222.3Q221.4 221.5 218.5 221.5L218.5 221.5L211.9 221.5L211.9 260ZM216.6 238.8L227.2 238.8L238.8 260L227.9 260L216.6 238.8ZM259.0 260.7L259.0 260.7Q253.8 260.7 249.9 258.4Q246.0 256.2 244.0 252.1Q241.9 248.0 241.9 242.7L241.9 242.7Q241.9 237.3 244.0 233.2Q246.0 229.2 249.9 226.9Q253.8 224.6 259.0 224.6L259.0 224.6Q264.3 224.6 268.2 226.9Q272.0 229.2 274.1 233.2Q276.2 237.3 276.2 242.7L276.2 242.7Q276.2 248.0 274.1 252.1Q272.0 256.2 268.2 258.4Q264.3 260.7 259.0 260.7ZM259.1 253.2L259.1 253.2Q261.5 253.2 263.1 251.8Q264.7 250.4 265.6 248.0Q266.4 245.7 266.4 242.6L266.4 242.6Q266.4 239.6 265.6 237.2Q264.7 234.8 263.1 233.4Q261.5 232.0 259.1 232.0L259.1 232.0Q256.7 232.0 255.0 233.4Q253.4 234.8 252.5 237.2Q251.7 239.6 251.7 242.6L251.7 242.6Q251.7 245.7 252.5 248.0Q253.4 250.4 255.0 251.8Q256.7 253.2 259.1 253.2ZM292.2 239.8L292.2 239.8L292.2 260L282.5 260L282.5 213.5L292.0 213.5L292.0 231.3L292.4 231.3Q293.5 228.2 296.2 226.4Q298.8 224.6 302.8 224.6L302.8 224.6Q306.4 224.6 309.1 226.2Q311.9 227.8 313.4 230.7Q314.9 233.7 314.9 237.8L314.9 237.8L314.9 260L305.2 260L305.2 239.5Q305.2 236.3 303.6 234.5Q301.9 232.7 299.0 232.7L299.0 232.7Q297.0 232.7 295.5 233.5Q294.0 234.4 293.1 236.0Q292.3 237.6 292.2 239.8ZM332.5 260.7L332.5 260.7Q329.1 260.7 326.5 259.5Q323.9 258.3 322.4 256.0Q320.9 253.7 320.9 250.3L320.9 250.3Q320.9 247.3 321.9 245.4Q323 243.4 324.8 242.2Q326.7 241.0 329.0 240.4Q331.4 239.8 334.0 239.5L334.0 239.5Q337.0 239.2 338.9 238.9Q340.8 238.6 341.6 238.0Q342.4 237.5 342.4 236.4L342.4 236.4L342.4 236.2Q342.4 234.1 341.1 232.9Q339.7 231.7 337.3 231.7L337.3 231.7Q334.6 231.7 333.1 232.9Q331.5 234 331.0 235.7L331.0 235.7L322.1 235Q322.8 231.8 324.8 229.5Q326.8 227.2 329.9 225.9Q333.1 224.6 337.3 224.6L337.3 224.6Q340.2 224.6 342.9 225.3Q345.5 226 347.6 227.4Q349.7 228.9 350.9 231.1Q352.1 233.3 352.1 236.5L352.1 236.5L352.1 260L342.9 260L342.9 255.2L342.7 255.2Q341.8 256.8 340.4 258.0Q339 259.3 337.0 260.0Q335.0 260.7 332.5 260.7ZM335.2 254.0L335.2 254.0Q337.4 254.0 339 253.1Q340.6 252.3 341.6 250.8Q342.5 249.4 342.5 247.5L342.5 247.5L342.5 243.8Q342.0 244.1 341.3 244.4Q340.5 244.6 339.5 244.8Q338.5 245.0 337.5 245.1Q336.6 245.3 335.8 245.4L335.8 245.4Q334.1 245.6 332.8 246.2Q331.5 246.7 330.8 247.6Q330.1 248.6 330.1 249.9L330.1 249.9Q330.1 251.9 331.6 252.9Q333 254.0 335.2 254.0ZM369.3 239.8L369.3 239.8L369.3 260L359.6 260L359.6 225.1L368.9 225.1L368.9 231.3L369.3 231.3Q370.4 228.2 373.2 226.4Q375.9 224.6 379.8 224.6L379.8 224.6Q383.4 224.6 386.1 226.2Q388.8 227.8 390.3 230.8Q391.8 233.7 391.8 237.8L391.8 237.8L391.8 260L382.1 260L382.1 239.5Q382.2 236.3 380.5 234.5Q378.8 232.7 375.9 232.7L375.9 232.7Q374.0 232.7 372.5 233.5Q371 234.4 370.2 236.0Q369.3 237.6 369.3 239.8Z M455.9 228.5L445.9 228.5Q445.4 226.8 444.6 225.6Q443.7 224.3 442.5 223.4Q441.2 222.5 439.6 222Q438.1 221.5 436.2 221.5L436.2 221.5Q432.6 221.5 429.9 223.3Q427.2 225.1 425.7 228.4Q424.2 231.8 424.2 236.7L424.2 236.7Q424.2 241.5 425.7 245.0Q427.2 248.4 429.9 250.1Q432.6 251.9 436.3 251.9L436.3 251.9Q439.6 251.9 442.0 250.7Q444.3 249.5 445.6 247.4Q446.9 245.2 446.9 242.2L446.9 242.2L448.9 242.5L436.9 242.5L436.9 235.1L456.3 235.1L456.3 241.0Q456.3 247.1 453.8 251.5Q451.2 255.9 446.6 258.3Q442.1 260.6 436.2 260.6L436.2 260.6Q429.7 260.6 424.7 257.7Q419.8 254.8 417.0 249.5Q414.2 244.1 414.2 236.8L414.2 236.8Q414.2 231.1 415.9 226.7Q417.5 222.2 420.5 219.1Q423.5 216.0 427.4 214.4Q431.4 212.8 436.0 212.8L436.0 212.8Q440.0 212.8 443.4 214.0Q446.8 215.1 449.4 217.2Q452.1 219.3 453.8 222.2Q455.4 225.0 455.9 228.5L455.9 228.5ZM485.9 245.1L485.9 245.1L485.9 225.1L495.6 225.1L495.6 260L486.3 260L486.3 253.7L486.0 253.7Q484.8 256.7 482.0 258.6Q479.3 260.5 475.4 260.5L475.4 260.5Q471.9 260.5 469.2 258.9Q466.5 257.3 465.1 254.3Q463.6 251.4 463.5 247.3L463.5 247.3L463.5 225.1L473.2 225.1L473.2 245.6Q473.3 248.7 474.9 250.5Q476.5 252.3 479.3 252.3L479.3 252.3Q481.0 252.3 482.5 251.5Q484.1 250.7 485.0 249.1Q486.0 247.5 485.9 245.1ZM513.0 273.1L503.3 273.1L503.3 225.1L512.9 225.1L512.9 231.0L513.3 231.0Q514.0 229.5 515.2 228.1Q516.4 226.6 518.4 225.6Q520.3 224.6 523.3 224.6L523.3 224.6Q527.1 224.6 530.3 226.6Q533.5 228.6 535.5 232.6Q537.4 236.6 537.4 242.6L537.4 242.6Q537.4 248.4 535.5 252.4Q533.6 256.5 530.4 258.5Q527.2 260.6 523.2 260.6L523.2 260.6Q520.4 260.6 518.4 259.6Q516.5 258.7 515.2 257.3Q514.0 255.9 513.3 254.4L513.3 254.4L513.0 254.4L513.0 273.1ZM512.8 242.5L512.8 242.5Q512.8 245.7 513.7 248.0Q514.5 250.3 516.2 251.6Q517.8 252.9 520.2 252.9L520.2 252.9Q522.5 252.9 524.2 251.6Q525.8 250.3 526.6 247.9Q527.5 245.6 527.5 242.5L527.5 242.5Q527.5 239.5 526.7 237.2Q525.8 234.9 524.2 233.6Q522.5 232.3 520.2 232.3L520.2 232.3Q517.8 232.3 516.2 233.6Q514.5 234.8 513.7 237.1Q512.8 239.4 512.8 242.5ZM541.4 225.1L562.4 225.1L562.4 232.4L541.4 232.4L541.4 225.1ZM546.1 250.5L546.1 216.7L555.8 216.7L555.8 249.3Q555.8 250.6 556.2 251.4Q556.6 252.1 557.4 252.4Q558.1 252.7 559.1 252.7L559.1 252.7Q559.8 252.7 560.5 252.6Q561.1 252.4 561.5 252.4L561.5 252.4L563.0 259.6Q562.3 259.8 561.0 260.1Q559.7 260.4 557.8 260.5L557.8 260.5Q554.3 260.6 551.6 259.5Q549.0 258.5 547.6 256.2Q546.1 254.0 546.1 250.5L546.1 250.5ZM578.6 260.7L578.6 260.7Q575.3 260.7 572.7 259.5Q570.1 258.3 568.6 256.0Q567.0 253.7 567.0 250.3L567.0 250.3Q567.0 247.3 568.1 245.4Q569.2 243.4 571.0 242.2Q572.9 241.0 575.2 240.4Q577.6 239.8 580.2 239.5L580.2 239.5Q583.2 239.2 585.1 238.9Q586.9 238.6 587.8 238.0Q588.6 237.5 588.6 236.4L588.6 236.4L588.6 236.2Q588.6 234.1 587.3 232.9Q585.9 231.7 583.4 231.7L583.4 231.7Q580.8 231.7 579.3 232.9Q577.7 234 577.2 235.7L577.2 235.7L568.3 235Q569.0 231.8 571.0 229.5Q573.0 227.2 576.1 225.9Q579.3 224.6 583.5 224.6L583.5 224.6Q586.4 224.6 589.1 225.3Q591.7 226 593.8 227.4Q595.9 228.9 597.1 231.1Q598.3 233.3 598.3 236.5L598.3 236.5L598.3 260L589.1 260L589.1 255.2L588.8 255.2Q588 256.8 586.6 258.0Q585.2 259.3 583.2 260.0Q581.2 260.7 578.6 260.7ZM581.4 254.0L581.4 254.0Q583.5 254.0 585.2 253.1Q586.8 252.3 587.8 250.8Q588.7 249.4 588.7 247.5L588.7 247.5L588.7 243.8Q588.2 244.1 587.4 244.4Q586.7 244.6 585.7 244.8Q584.7 245.0 583.7 245.1Q582.8 245.3 582.0 245.4L582.0 245.4Q580.3 245.6 579.0 246.2Q577.7 246.7 577 247.6Q576.3 248.6 576.3 249.9L576.3 249.9Q576.3 251.9 577.7 252.9Q579.2 254.0 581.4 254.0Z "/></g></svg>